#!OML:ASF F:\VICON\USERDATA\INSTALL\rory3\rory3.ASF
:FULLY-SPECIFIED
:DEGREES
69
root 0.10771526071498572 17.6895306172549 26.37301799687485 -2.493660690409842 0.7494575714599192 -1.2589944158188722
lfemur 11.331603701708993 -5.412572772728655 -22.492570990925316
ltibia 42.80966199410613
lfoot 1.8318684906143021 -11.999033664298974
ltoes -14.514187164506911
rfemur -23.619204992586333 4.497783639530309 24.46606857117956
rtibia 34.49484362324526
rfoot -3.4452886172660584 -4.309605047399527
rtoes 7.485166354798576
lowerback nan -1.6713238683721396 -0.07521672248070299
upperback 0.21085280002490778 -2.120279204518149 2.615565173772268
thorax -4.780097558354712 -1.0859331842030233 3.8226841841538834
lowerneck -15.784056110103231 -2.4496971182956493 -2.0878140488158587
upperneck 20.092201344485908 -2.502093788946243 0.729341530113723
head 9.24254454219567 -1.3794331350644022 -0.3604161931474872
lclavicle -6.304536346303762e-15 -1.7648276480352137e-15
lhumerus -21.340412512092428 -4.488782203862845 82.04184860757545
lradius 32.79667815015416
lwrist 7.562450699163824
lhand -27.587542217666503 26.566387463172454
lfingers nan
lthumb -0.9030413258199663 56.300727538575146
rclavicle -3.5004744704972528e-15 -1.126260435173737e-15
rhumerus -43.453017772380726 -35.560357766132626 -63.543232475949445
rradius 16.41176318061015
rwrist 13.29917621839212
rhand -18.421464008569153 nan
rfingers nan
rthumb 7.963223028006024 -6.839928198971783
70
root 0.04867334466312778 17.746349918413163 27.615393175323966 -2.9153524678138423 0.6096010469295565 -2.410876321973286
lfemur 6.5062090164671496 -4.463052848424665 -19.43336616585697
ltibia 54.40123441338059
lfoot 7.825747645895311 -16.150292724992894
ltoes 2.915031989378445
rfemur -20.65340874336572 4.635600304140667 26.916359464071327
rtibia 34.679526393949565
rfoot -4.402053782831957 -4.623442807770111
rtoes 9.91944305086676
lowerback nan -1.4872241064178746 1.4510303117367127
upperback 0.09968081602837198 -1.7599127927969305 2.9548917586696777
thorax -4.905104223862168 -0.9226237645697322 3.504064510846101
lowerneck -15.61440564831449 -2.490066471797962 -2.085387180586155
upperneck 20.05234412851567 -2.8807458724171413 0.7890553736047217
head 9.456579884845057 -1.5391076530630239 -0.3391557283078648
lclavicle -3.757563092509512e-15 -3.2875152005759973e-15
lhumerus -22.134709212641436 -3.678400389263506 82.24426939240465
lradius 32.19470978174967
lwrist 7.931149851635825
lhand -28.875171793206874 23.93102801690736
lfingers nan
lthumb -2.0868612026675395 54.24930675515215
rclavicle -2.63948869722233e-15 -2.3892612233640763e-15
rhumerus -41.37663171961023 -33.64619535397981 -66.19620657807143
rradius 16.26343089692498
rwrist 11.933153853575085
rhand -18.51591387786796 nan
rfingers nan
rthumb 7.8208424259651075 -7.629983637122891
71
root -0.02637773685930489 17.789561118059783 27.76738690859075 -3.329260253144412 0.20590065065392982 -3.326139032648409
lfemur 0.4058750611095938 -3.161706321816295 -16.890400815119143
ltibia 63.8643416846553
lfoot 11.853484511196605 -18.272999096860893
ltoes 6.931177122483319
rfemur -17.459527623665593 5.0410770704271375 29.117776541424732
rtibia 34.44721360849504
rfoot -6.169176123327647 -5.722499193399199
rtoes 10.177601607040739
lowerback nan -1.178292872255317 2.4296829330282077
upperback 0.21576467443237352 -1.268338315589743 3.1268786439124296
thorax -4.34789659616432 -0.7028265067335422 2.6138298704148424
lowerneck -15.524627975331859 -2.4913104392442103 -1.907335861016557
upperneck 20.057626512011424 -3.389241892956508 0.9610251334389222
head 9.526116108386873 -1.6156085790071884 -0.10771547558213539
lclavicle -2.7487353426877487e-15 -2.3142458629011496e-15
lhumerus -22.97331414825082 -2.954744463807 82.63979924618371
lradius 31.088743047540056
lwrist 6.946363703538427
lhand -28.716393029430957 24.00760731343002
lfingers nan
lthumb -1.8283297097221567 54.798653249188455
rclavicle -1.326908706053419e-15 -1.1377013999368017e-15
rhumerus -39.111982000205735 -31.20363618434414 -68.7540890803207
rradius 16.089687659114205
rwrist 11.984415654877399
rhand -17.728493807476003 nan
rfingers nan
rthumb 7.956162983690601 -8.93492272222539
72
root -0.06586310984590477 17.841537921251724 29.024951085571068 -3.5630508999442028 0.07443072382933624 -3.9206983354695275
lfemur -4.315299177325181 -1.4492125530571462 -15.998464426673142
ltibia 70.74599991636873
lfoot 9.146271239218862 -16.962928172169086
ltoes -7.850960164394953
rfemur -14.554024459032261 5.017259251093832 29.679457600678816
rtibia 34.009514862394916
rfoot -8.825267300481386 -6.1919947438239955
rtoes 9.67976107717659
lowerback nan -0.8776169459531848 2.3465651523793656
upperback 0.27910843972472044 -0.8412770553770845 3.1971102800890026
thorax -4.503741119814595 -0.4957952517064836 2.0638686602389216
lowerneck -15.263259853397825 -2.558722131923313 -1.8340533804553463
upperneck 19.980321170350944 -3.5674459818814057 1.038483874867692
head 9.66156463278349 -1.6565839058929586 0.06261140009426597
lclavicle -3.603912748784303e-15 -1.731719256505513e-15
lhumerus -24.088213474584652 -2.1606835315667836 82.88223017609741
lradius 29.871669388751634
lwrist 5.47430628938141
lhand -28.2497181234767 25.102504268918935
lfingers nan
lthumb -2.114298577363073 54.07192756091816
rclavicle 6.318332406538719e-16 -3.670137277319977e-16
rhumerus -36.09455336714721 -27.892567192280495 -71.82569408953114
rradius 16.068802025004707
rwrist 12.16697925272408
rhand -17.608535497094554 nan
rfingers nan
rthumb 8.14516931917748 -7.4250226331381555
73
root -0.10791082324470835 17.859461374951696 28.56573789753314 -3.7057648852518854 -0.5854180946713095 -4.645784067041898
lfemur -9.603683308515242 0.926754212891264 -14.426332216489211
ltibia 74.09803304641517
lfoot 2.2990686685930095 -15.90690200799968
ltoes -5.582840016418935
rfemur -11.250899534996504 5.29604271829281 31.204042011637444
rtibia 32.55080511422529
rfoot -10.884269233557658 -5.725897243588338
rtoes 8.902644952994867
lowerback nan -0.39843982872064787 3.061377257123806
upperback 0.42694843927998 -0.13498867592221953 3.1563005908329087
thorax -4.378130677382846 -0.14231947269752238 1.7017254729468854
lowerneck -15.285633465268917 -2.632053812553707 -1.8511562484805975
upperneck 20.05737830325471 -3.8540097277349283 1.03302506626035
head 9.504558881070858 -1.7818932481276548 0.14040630874762453
lclavicle -3.287218398417009e-15 -2.5152811547682807e-15
lhumerus -25.43446029593368 -1.3761384677419435 83.25161196323717
lradius 28.97492225872661
lwrist 4.183700143667805
lhand -28.63893776653403 23.998245295986816
lfingers nan
lthumb -2.2362081152314315 53.34014796103975
rclavicle -1.770066511150451e-15 -1.4380529817427488e-15
rhumerus -33.95489917593204 -23.93098871408003 -74.70586650172639
rradius 16.758883009137826
rwrist 10.414622469557104
rhand -18.046693721278793 nan
rfingers nan
rthumb 8.112774658103753 -6.567953907743839
